<svg width="32" height="32" viewBox="0 0 32 32" fill="none" xmlns="http://www.w3.org/2000/svg">
<path d="M16.4026 23.8043L16.6289 24.2501H16.6289L16.4026 23.8043ZM15.5976 23.8043L15.3712 24.2501H15.3712L15.5976 23.8043ZM24.8334 11.9998C24.8334 15.2354 23.1459 17.839 21.1877 19.7712C19.2305 21.7023 17.0487 22.9155 16.1762 23.3584L16.6289 24.2501C17.5454 23.7848 19.829 22.5166 21.89 20.483C23.95 18.4505 25.8334 15.6061 25.8334 11.9998H24.8334ZM16.0001 3.1665C20.8786 3.1665 24.8334 7.12132 24.8334 11.9998H25.8334C25.8334 6.56904 21.4309 2.1665 16.0001 2.1665V3.1665ZM7.16675 11.9998C7.16675 7.12132 11.1216 3.1665 16.0001 3.1665V2.1665C10.5693 2.1665 6.16675 6.56904 6.16675 11.9998H7.16675ZM15.8239 23.3584C14.9515 22.9155 12.7697 21.7023 10.8125 19.7712C8.85425 17.839 7.16675 15.2354 7.16675 11.9998H6.16675C6.16675 15.6061 8.05021 18.4505 10.1101 20.483C12.1712 22.5166 14.4547 23.7848 15.3712 24.2501L15.8239 23.3584ZM16.1762 23.3584C16.0645 23.4152 15.9357 23.4152 15.8239 23.3584L15.3712 24.2501C15.7675 24.4513 16.2327 24.4513 16.6289 24.2501L16.1762 23.3584ZM19.5001 11.9998C19.5001 13.9328 17.9331 15.4998 16.0001 15.4998V16.4998C18.4854 16.4998 20.5001 14.4851 20.5001 11.9998H19.5001ZM16.0001 8.49984C17.9331 8.49984 19.5001 10.0668 19.5001 11.9998H20.5001C20.5001 9.51456 18.4854 7.49984 16.0001 7.49984V8.49984ZM12.5001 11.9998C12.5001 10.0668 14.0671 8.49984 16.0001 8.49984V7.49984C13.5148 7.49984 11.5001 9.51456 11.5001 11.9998H12.5001ZM16.0001 15.4998C14.0671 15.4998 12.5001 13.9328 12.5001 11.9998H11.5001C11.5001 14.4851 13.5148 16.4998 16.0001 16.4998V15.4998Z" fill="white"/>
<path d="M26.3923 23.3335C27.4455 23.9416 28 24.6313 28 25.3335C28 26.0356 27.4455 26.7254 26.3923 27.3335C25.3391 27.9416 23.8242 28.4465 22 28.7976C20.1758 29.1487 18.1064 29.3335 16 29.3335C13.8936 29.3335 11.8242 29.1487 10 28.7976C8.17577 28.4465 6.66092 27.9416 5.6077 27.3335C4.55448 26.7254 4 26.0356 4 25.3335C4 24.6313 4.55447 23.9416 5.60769 23.3335" stroke="white" stroke-linecap="round"/>
</svg>
